# xmcd
#
# Track frame offsets:
#	150
#	15878
#	33494
#	43402
#	52949
#	62717
#	75286
#	88395
#	100802
#	116997
#	127932
#	137501
#	148170
#	160731
#	170598
#	188137
#
# Disc length: 2682 seconds
#
# Revision: 5
# Processed by: cddbd v1.5.2PL0 Copyright (c) Steve Scherf et al.
# Submitted via: EasyCDDAExtractor 11.1.0.1
#
DISCID=d40a7810
DTITLE=Various Artist - Country Stars Of The Millenium Part 1
DYEAR=2000
DGENRE=Country
TTITLE0=Billy Joe Spears -  Blanket On The Ground
TTITLE1=Skeeter Davies - Always On My Mind
TTITLE2=Johnny Cash -  Ballad Of A Teenage Queen
TTITLE3=Merle Travis - 16 Tons
TTITLE4=Ned Miller -  From A Jack To A King
TTITLE5=Frankie Laine - High Noon
TTITLE6=Freddy Fender - Silver Wings
TTITLE7=Kenny Rogers - Ruben James
TTITLE8=Lynne Anderson - The Devil Went Down To Georgia
TTITLE9=Dolly Parton -  It Wasn't God Who Made Honkytonk Angles
TTITLE10=Dave Dudley -  Six Days On The Road
TTITLE11=Patsy CLine -  I Don't Wanna
TTITLE12=Gene Autry -  Godnight Irene
TTITLE13=Willie Nelson -  Let's Pretend
TTITLE14=Glenn Campbell -  Southern Nights
TTITLE15=Charlie Rich -  Behind Closed Doors
EXTD=YEAR: 2000
EXTT0=
EXTT1=
EXTT2=
EXTT3=
EXTT4=
EXTT5=
EXTT6=
EXTT7=
EXTT8=
EXTT9=
EXTT10=
EXTT11=
EXTT12=
EXTT13=
EXTT14=
EXTT15=
PLAYORDER=
